<?xml version="1.0" encoding="UTF-8" standalone="no"?>
<svg
   version="1.1"
   viewBox="0 0 1205.6932 368.18134"
   preserveAspectRatio="xMidYMid meet"
   id="svg11"
   xmlns="http://www.w3.org/2000/svg"
   xmlns:svg="http://www.w3.org/2000/svg">
  <defs
     id="defs11" />
  <path
     d="m 98.435172,210.53476 c 29.556098,13.32267 61.864628,11.90424 91.908208,1.09204 2.86524,-1.15339 5.57373,-2.55113 8.28881,-4.01977 5.58169,-2.54559 10.73642,-0.69639 16.24048,1.11523 13.13575,5.00342 25.21599,11.44708 35.5625,21.0625 0.91137,0.83145 1.82273,1.66289 2.76172,2.51953 20.47623,19.50525 32.8169,46.09821 33.52881,74.47656 0.0263,2.48038 0.041,4.9609 0.0454,7.44141 0.006,1.33708 0.0132,2.67416 0.0202,4.01123 0.0119,2.77315 0.0157,5.54617 0.0145,8.31934 -2.1e-4,3.54519 0.0273,7.08959 0.0615,10.63459 0.0276,3.40746 0.0264,6.81477 0.0288,10.22234 0.0144,1.26771 0.0287,2.53542 0.0436,3.84155 -0.006,1.17893 -0.0123,2.35786 -0.0187,3.57251 0.003,1.03335 0.006,2.06669 0.009,3.13135 -0.63134,3.61274 -1.93895,5.23629 -4.49448,7.82959 -2.99142,1.82354 -5.21287,2.25078 -8.69491,2.25448 -0.9454,0.006 -1.8908,0.0117 -2.86485,0.0177 -1.03549,-0.004 -2.07098,-0.008 -3.13786,-0.0114 -1.10245,0.004 -2.20489,0.008 -3.34075,0.0116 -3.70723,0.0103 -7.4143,0.006 -11.12154,0.002 -2.65255,0.004 -5.30509,0.009 -7.95763,0.0155 -6.46485,0.0127 -12.92967,0.0145 -19.39453,0.0122 -5.25397,-0.002 -10.50792,-4e-5 -15.76189,0.004 -0.74736,6e-4 -1.49472,10e-4 -2.26473,0.002 -1.5182,10e-4 -3.03639,0.002 -4.55459,0.004 -14.2421,0.0109 -28.48419,0.009 -42.7263,0.003 -13.03292,-0.005 -26.06576,0.006 -39.09866,0.0251 -13.37837,0.0194 -26.75671,0.0276 -40.135099,0.0239 -7.512482,-0.002 -15.0249,5.9e-4 -22.537371,0.0147 -6.395259,0.0119 -12.790416,0.0133 -19.185678,10e-4 -3.263429,-0.006 -6.526631,-0.005 -9.790054,0.005 -3.536495,0.0104 -7.07248,0.002 -10.608956,-0.0103 -1.549895,0.0111 -1.549895,0.0111 -3.131101,0.0223 -8.7337278,-0.0664 -8.7337278,-0.0664 -12.6934988,-3.39657 -4.08590901,-5.5155 -3.41585301,-11.77894 -3.36328101,-18.34375 -4.99e-4,-1.20129 -9.97e-4,-2.40257 -0.0015,-3.64026 0.0023,-2.5418 0.01205,-5.08361 0.02861,-7.62536 0.02343,-3.84918 0.02058,-7.69765 0.01392,-11.54688 0.0056,-2.47917 0.0127,-4.95834 0.02148,-7.4375 -9.12e-4,-1.13385 -0.0018,-2.2677 -0.0028,-3.43591 0.09458,-10.92218 1.25439101,-21.8594 4.42854301,-32.34534 0.317593,-1.05526 0.317593,-1.05526 0.641602,-2.13184 8.7552858,-27.597 28.2407858,-50.17761 53.7765328,-63.43136 13.447035,-6.68565 25.286912,-11.09126 39.456543,-4.31201 z"
     fill="#9254f5"
     id="path1" />
  <path
     d="m 176.43517,4.7847604 c 1.10731,0.3390234 2.21461,0.6780469 3.35547,1.0273437 20.48964,7.0128989 37.83267,22.0503849 49.64453,39.9726559 0.93393,1.394121 0.93393,1.394121 1.88672,2.816406 10.81768,17.24728 14.82758,37.050873 14.11328,57.183594 -0.87845,0.17221 -0.87845,0.17221 -1.77466,0.3479 -12.40256,2.45366 -24.7217,5.15907 -36.97534,8.2771 -1.7389,0.43325 -1.7389,0.43325 -3.51294,0.87524 -1.0837,0.28094 -2.16739,0.56187 -3.28393,0.85132 -0.95745,0.24573 -1.9149,0.49146 -2.90137,0.74463 -2.71185,0.96051 -4.48792,1.89834 -6.55176,3.90381 -0.33381,3.62564 -0.33381,3.62564 0,7 0.64711,0.23332 1.29422,0.46664 1.96094,0.70703 3.221,1.37037 6.20797,2.98562 9.27222,4.67041 10.26776,5.62385 20.68896,9.87618 31.76684,13.62256 -0.4713,5.05507 -2.17188,8.42052 -5.125,12.4375 -0.43812,0.59909 -0.87624,1.19818 -1.32763,1.81543 -16.45023,21.78681 -39.24516,36.61563 -66.42237,40.99707 -27.77385,3.44864 -54.867,-3.24663 -77.124998,-20.25 -20.96242,-16.68686 -35.25252,-40.89025 -38.72266,-67.59375 -2.29492,-28.185573 4.71862,-55.313511 22.72266,-77.40625 1.0132,-1.25877 1.0132,-1.25877 2.04687,-2.542969 C 95.08394,4.1081768 139.03146,-7.3885206 176.43517,4.7847604 Z"
     fill="#9254f5"
     id="path2" />
  <path
     d="m 465.43517,73.78476 c 127.62264,0 127.62264,0 156,16 0.98484,0.543984 1.96969,1.087969 2.98437,1.648437 21.53053,12.756523 35.96884,33.728803 43.89063,57.039063 0.42974,1.26372 0.42974,1.26372 0.86816,2.55298 10.01403,31.11157 7.12663,68.69927 -7.74316,97.75952 -4.77348,8.74814 -10.41354,16.53293 -17,24 -0.53883,0.62262 -1.07766,1.24523 -1.63281,1.88672 -20.67174,22.28185 -51.33231,29.69371 -80.36719,32.11328 -32.01,0 -64.02,0 -97,0 0,-76.89 0,-153.78 0,-233 z m 48,42 c -0.0233,19.40991 -0.041,38.81983 -0.0518,58.22975 -0.005,9.01172 -0.0122,18.02343 -0.0236,27.03514 -0.01,7.85171 -0.0164,15.7034 -0.0186,23.55511 -0.001,4.16003 -0.004,8.32005 -0.0116,12.48008 -0.007,3.911 -0.009,7.82199 -0.007,11.733 -2.7e-4,1.43959 -0.002,2.87919 -0.006,4.31878 -0.005,1.95708 -0.003,3.91418 -10e-4,5.87127 -9.2e-4,1.09785 -0.002,2.19571 -0.003,3.32683 -0.15425,2.39634 -0.15425,2.39634 1.12303,3.45004 1.33234,0.10312 2.67004,0.13849 4.00635,0.14526 0.85244,0.006 1.70489,0.0128 2.58316,0.0193 0.9321,10e-4 1.86421,0.002 2.82455,0.003 1.44275,0.005 1.44275,0.005 2.91465,0.0101 2.0496,0.005 4.09922,0.007 6.14883,0.007 3.08576,0.002 6.17114,0.0202 9.25684,0.0393 23.61481,0.0687 46.12857,-1.91813 64.05859,-19.0293 1.09248,-1.08668 1.09248,-1.08668 2.20703,-2.19531 0.55301,-0.5182 1.10602,-1.03641 1.67578,-1.57031 14.3948,-14.8216 16.95856,-36.58609 16.79297,-56.11524 -0.51997,-20.02912 -6.15604,-38.38781 -20.67969,-52.75911 -15.27189,-13.98854 -33.37703,-18.74918 -53.6289,-18.65235 -1.12209,0.001 -2.24419,0.003 -3.40029,0.004 -3.56581,0.006 -7.13157,0.0181 -10.69737,0.0309 -2.42513,0.005 -4.85026,0.01 -7.27539,0.0137 -5.92906,0.011 -11.85808,0.0277 -17.78711,0.0488 z"
     fill="#9254f5"
     id="path3" />
  <path
     d="m 1131.5602,136.40976 c 0.6824,-1.2e-4 1.3648,-2.4e-4 2.0679,-3.7e-4 10.7674,0.0271 20.594,0.90292 30.8071,4.37537 0.9513,0.30035 1.9026,0.6007 2.8828,0.91016 8.5323,3.01369 16.0714,8.39044 22.1172,15.08984 0.8295,0.84111 0.8295,0.84111 1.6758,1.69922 16.8393,17.77682 14.4804,44.58413 14.457,67.28516 7e-4,2.31073 0,4.62146 0,6.93219 0,4.81427 -7e-4,9.62853 -0.01,14.44281 -0.01,6.18411 0,12.36818 0,18.5523 0,4.75757 0,9.51514 -10e-5,14.27271 -7e-4,2.28229 10e-5,4.56457 0,6.84685 0,3.17158 0,6.34309 -0.01,9.51466 0,1.42269 0,1.42269 0.01,2.87411 -0.021,6.46572 -0.021,6.46572 -1.1356,7.57999 -1.3509,0.0927 -2.7066,0.11747 -4.0608,0.11353 -0.8608,-8e-5 -1.7216,-1.6e-4 -2.6085,-2.3e-4 -0.9354,-0.005 -1.8708,-0.0103 -2.8346,-0.0156 -0.953,-10e-4 -1.906,-0.003 -2.8879,-0.004 -3.0569,-0.006 -6.1138,-0.0182 -9.1707,-0.0309 -2.067,-0.005 -4.1341,-0.01 -6.2011,-0.0137 -5.0788,-0.0111 -10.1576,-0.0283 -15.2364,-0.0488 -0.66,-4.95 -1.32,-9.9 -2,-15 -1.1962,1.17562 -2.3925,2.35125 -3.625,3.5625 -15.625,13.79112 -34.5638,15.54636 -54.5356,14.64893 -14.9092,-1.11018 -28.684,-7.08603 -38.8394,-18.21143 -8.2192,-10.97096 -11.1874,-24.0766 -9.5625,-37.65625 2.8141,-14.70979 9.2316,-24.83911 21.5625,-33.34375 24.6449,-14.28359 56.4348,-12.507 84,-14 0.031,-1.89964 0.052,-3.79942 0.07,-5.69922 0.013,-1.05792 0.026,-2.11583 0.04,-3.20581 -0.2456,-6.91606 -2.5869,-12.53264 -7.3052,-17.59136 -4.7315,-3.94287 -10.7129,-6.01656 -16.8047,-6.50391 -0.7773,-0.0632 -1.5546,-0.12633 -2.3555,-0.19141 -9.7032,-0.43405 -20.0704,1.8503 -27.6445,8.19141 -2.7367,2.6023 -5.3782,5.28265 -8,8 -1.331,1.33565 -2.6637,2.66964 -4,4 -22.5949,-12.88188 -22.5949,-12.88188 -33,-19 5.0217,-13.54701 17.3813,-23.72247 30,-30 2.6756,-1.2174 5.3804,-2.32297 8.125,-3.375 0.9302,-0.35808 0.9302,-0.35808 1.8791,-0.72339 10.4958,-3.77139 21.0486,-4.29014 32.1209,-4.27661 z m 5.5007,99.49194 c -2.0548,0.19476 -4.1105,0.37409 -6.1667,0.55298 -11.0833,1.01784 -21.2213,2.28992 -29.459,10.33008 -3.605,4.95678 -3.7053,10.07722 -3,16 2.296,6.40479 6.2693,10.42671 12.375,13.3125 9.6995,3.5363 20.3722,2.66728 29.9023,-0.98828 8.2567,-4.0158 14.2218,-9.65071 17.4649,-18.30469 1.9551,-7.13776 1.4316,-14.68835 1.2578,-22.01953 -7.5101,-0.17427 -14.9044,0.39973 -22.3743,1.11694 z"
     fill="#9254f5"
     id="path4" />
  <path
     d="m 905.54847,152.806 c 8.15646,6.27901 14.94876,13.92582 19.88672,22.97876 0,0.66 0,1.32 0,2 -1.93021,1.38404 -3.85233,2.63788 -5.875,3.875 -4.37807,2.72702 -8.70661,5.4985 -12.95703,8.42188 -0.80647,0.55188 -1.61294,1.10376 -2.44385,1.67236 -1.59477,1.09493 -3.18441,2.19737 -4.76855,3.30762 -0.73171,0.49902 -1.46341,0.99805 -2.21729,1.5122 -0.97392,0.67604 -0.97392,0.67604 -1.96753,1.36573 -1.77075,0.84521 -1.77075,0.84521 -4.77075,-0.15479 -1.32422,-1.60156 -1.32422,-1.60156 -2.6875,-3.625 -6.30228,-8.63475 -14.25266,-14.31074 -24.70703,-16.98828 -12.40663,-1.84146 -25.16679,-0.70665 -35.54297,6.86328 -9.66076,8.31604 -15.13646,19.3808 -16.26904,32.06274 -0.0958,2.33737 -0.12279,4.66053 -0.10596,6.99976 0.006,0.82887 0.0113,1.65773 0.0171,2.51172 0.25057,12.7418 3.77941,24.47848 12.54541,34.05078 9.32956,8.60713 21.12298,10.73605 33.38672,10.42969 10.94513,-0.57845 19.72744,-4.42856 27.36328,-12.30469 2.54532,-3.2137 4.84326,-6.51493 7,-10 3.81324,1.40085 7.09222,3.17329 10.52734,5.33594 1.03963,0.65226 2.07926,1.30453 3.1504,1.97656 1.61358,1.02094 1.61358,1.02094 3.25976,2.0625 1.07186,0.67289 2.14371,1.34578 3.24805,2.03906 4.98096,3.13354 9.94417,6.28262 14.81445,9.58594 -5.08012,14.49951 -18.86914,25.93089 -32,33 -22.41281,10.53373 -50.40458,11.69409 -73.77344,3.71094 -21.35867,-7.76364 -37.7883,-22.73739 -47.60156,-43.21094 -9.95846,-21.62107 -10.78568,-47.93093 -2.67554,-70.35693 8.61779,-22.10464 24.09454,-38.43544 45.44898,-48.63916 29.15246,-12.17321 64.12223,-9.19906 89.71484,9.51733 z"
     fill="#9254f5"
     id="path5" />
  <path
     d="m 956.43517,94.78476 c 6.53284,-0.0229 13.06554,-0.04283 19.59839,-0.05493 2.22429,-0.005 4.44858,-0.01187 6.67285,-0.02051 3.18955,-0.01207 6.37904,-0.01779 9.56861,-0.02222 1.50155,-0.0077 1.50155,-0.0077 3.03343,-0.01564 0.92088,-7.6e-5 1.84176,-1.51e-4 2.79054,-2.29e-4 0.81497,-0.0022 1.62993,-0.0044 2.46961,-0.0067 1.8666,0.120254 1.8666,0.120254 2.8666,1.120254 0.093,1.381601 0.1174,2.767881 0.1135,4.152588 -1e-4,1.321247 -1e-4,1.321247 -2e-4,2.669197 -0.01,0.95729 -0.01,1.91457 -0.016,2.90087 0,0.97521 0,1.95042 0,2.95518 -0.01,3.12825 -0.018,6.25643 -0.031,9.38466 0,2.11523 -0.01,4.23047 -0.014,6.3457 -0.01,5.19732 -0.03,10.39448 -0.049,15.5918 12.87,0 25.74,0 39,0 -0.33,11.88 -0.66,23.76 -1,36 -9.6861,1.93722 -19.7007,1.07281 -29.5196,0.49219 -0.821,-0.0471 -1.642,-0.0943 -2.4879,-0.14282 -1.9976,-0.1149 -3.9951,-0.23191 -5.9925,-0.34937 0.038,10.55352 0.097,21.10668 0.1839,31.65992 0.039,4.90081 0.072,9.80144 0.087,14.70238 0.015,4.73349 0.05,9.46649 0.097,14.19976 0.015,1.80197 0.023,3.604 0.024,5.40603 0,2.53265 0.03,5.06395 0.062,7.59636 0,0.738 -0.01,1.476 -0.015,2.23636 0.1075,5.41329 1.5351,9.68013 4.5612,14.19919 5.1356,3.98008 9.8961,4.13786 16.25,4.125 1.2633,0.003 2.5265,0.005 3.8281,0.008 4.0488,-0.1373 7.9133,-0.5718 11.9219,-1.133 0.5746,4.30437 1.1441,8.60938 1.709,12.91504 0.1926,1.46275 0.3866,2.92532 0.582,4.38769 0.2816,2.10957 0.5583,4.21974 0.834,6.33008 0.1676,1.26731 0.3351,2.53462 0.5078,3.84033 0.3342,3.20993 0.4366,6.30323 0.3672,9.52686 -1.8317,0.4854 -3.6655,0.96297 -5.5,1.4375 -1.021,0.26684 -2.0419,0.53367 -3.0938,0.80859 -20.5929,4.55785 -42.21653,2.65367 -60.40623,-8.24609 -9.49687,-6.30338 -15.80672,-17.47371 -18.08349,-28.5188 -1.52353,-8.85167 -1.27615,-17.85114 -1.33057,-26.80542 -0.0187,-1.95727 -0.0383,-3.91453 -0.0587,-5.87178 -0.051,-5.11754 -0.0908,-10.23511 -0.12814,-15.35277 -0.0402,-5.23576 -0.0912,-10.47141 -0.1413,-15.70709 -0.0964,-10.24797 -0.18093,-20.496 -0.25781,-30.74414 -0.66121,0.005 -1.32241,0.0105 -2.00366,0.0159 -2.97794,0.0207 -5.95586,0.0338 -8.93384,0.0466 -1.56137,0.0126 -1.56137,0.0126 -3.15429,0.0254 -0.98936,0.003 -1.97872,0.006 -2.99805,0.01 -1.37467,0.008 -1.37467,0.008 -2.7771,0.0159 -2.13306,-0.11356 -2.13306,-0.11356 -3.13306,-1.11356 -0.0885,-2.66626 -0.11524,-5.30647 -0.0977,-7.97266 10e-4,-0.79764 0.003,-1.59528 0.004,-2.41709 0.006,-2.55762 0.0182,-5.11516 0.0309,-7.67275 0.005,-1.72982 0.01,-3.45963 0.0137,-5.18945 0.0102,-4.24941 0.0298,-8.49863 0.0488,-12.74805 7.92,0 15.84,0 24,0 0,-14.85 0,-29.7 0,-44.999995 z"
     fill="#9254f5"
     id="path6" />
  <path
     d="m 698.43517,139.78476 c 15.51,0 31.02,0 47,0 1.43464,2.86927 1.1042,5.29669 1.08229,8.50455 -0.003,0.67549 -0.007,1.35099 -0.01,2.04695 -0.0121,2.27407 -0.0315,4.54802 -0.0508,6.82204 -0.0101,1.62588 -0.0198,3.25177 -0.0291,4.87767 -0.0265,4.42333 -0.0593,8.8466 -0.0932,13.26988 -0.0343,4.61912 -0.0629,9.23827 -0.0921,13.85742 -0.0562,8.75125 -0.11753,17.50246 -0.18072,26.25366 -0.0717,9.96113 -0.13761,19.92231 -0.20307,29.88348 -0.13478,20.49483 -0.27756,40.9896 -0.42355,61.48435 -15.51,0 -31.02,0 -47,0 0,-55.11 0,-110.22 0,-167 z"
     fill="#9254f5"
     id="path7" />
  <path
     d="m 347.43517,9.7847604 c 21.14967,16.1641656 34.94396,44.6429966 42.25,69.4999996 0.24654,0.829915 0.49307,1.659829 0.74707,2.514893 3.50437,12.489453 4.41515,25.067967 4.37793,37.985107 -5.4e-4,0.71689 -0.001,1.43378 -0.002,2.17239 -0.1301,37.53043 -13.85129,72.47193 -39.00787,100.28537 -1.3931,1.57343 -2.72051,3.18834 -4.04517,4.81958 -2.98447,3.50198 -5.60815,5.49843 -10.30468,5.88672 -4.13564,-0.20211 -5.78682,-0.96862 -9.01563,-3.72656 -1.85326,-3.1853 -2.98364,-5.4474 -2.74219,-9.17578 1.72582,-5.25934 6.10607,-9.2229 9.74214,-13.26172 23.35325,-27.48465 33.9335,-61.11858 32,-97 -2.55925,-31.261555 -15.93786,-57.992309 -36.53125,-81.171875 -4.39532,-5.035153 -4.39532,-5.035153 -4.78125,-9.203125 0.34012,-3.945306 0.74126,-5.639045 3.3125,-8.625 5.41487,-3.228093 8.19408,-3.1922235 14,-0.9999996 z"
     fill="#9254f5"
     id="path8" />
  <path
     d="m 309.43517,41.78476 c 17.93077,10.584466 29.03983,33.675372 34.22266,53.25 6.12309,29.53852 1.33923,57.00887 -14.22266,82.75 -2.13646,3.2246 -4.41824,6.12511 -7,9 -0.75539,0.8843 -1.51078,1.76859 -2.28906,2.67969 -7.77243,8.93703 -7.77243,8.93703 -13.58594,9.69531 -3.94672,-0.47361 -6.03495,-1.93171 -9.125,-4.375 -1.60966,-3.21932 -1.45943,-6.50831 -1,-10 1.92538,-3.69673 4.4654,-6.51027 7.25,-9.5625 6.72947,-7.62289 11.53967,-16.16591 15.125,-25.625 0.23856,-0.62842 0.47712,-1.25684 0.7229,-1.9043 7.78659,-21.76979 4.90966,-45.02042 -4.4729,-65.732419 -4.15751,-8.125134 -9.96667,-14.95974 -15.80469,-21.925781 -2.75334,-3.40328 -3.21183,-5.790585 -3.17968,-10.210937 0.6026,-3.41913 2.72723,-4.970953 5.35937,-7.039063 2.86608,-1.43304 4.81301,-1.306441 8,-1 z"
     fill="#9254f5"
     id="path9" />
  <path
     d="m 736.43517,66.78476 c 7.88366,5.425587 11.9806,11.718152 14,21 0.70532,8.040673 -1.51172,15.05307 -5.8125,21.875 -6.52584,6.33939 -12.72295,9.39588 -22,9.5 -8.00499,-0.12653 -12.86151,-2.20031 -19.4375,-6.5 -5.75301,-6.01452 -8.4762,-12.844356 -8.88672,-21.136719 0.43818,-8.775967 3.97573,-15.966472 10.38672,-21.925781 9.00994,-7.272855 21.4612,-8.258436 31.75,-2.8125 z"
     fill="#9254f5"
     id="path10" />
  <path
     d="m 279.43517,74.78476 c 4.18262,2.806063 6.84844,6.226404 9.5,10.4375 0.38801,0.611821 0.77602,1.223643 1.17578,1.854004 4.98229,8.104553 9.07532,17.067526 9.32422,26.708496 0.0503,1.10988 0.10055,2.21977 0.15235,3.36328 0.44586,17.46021 -3.98677,31.63879 -15.90625,44.57813 -2.8408,2.60365 -5.42571,4.84164 -9.34375,5.30859 -3.71679,-0.47291 -5.47529,-0.86674 -8.33985,-3.4375 -1.75597,-3.16075 -2.4886,-5.19171 -2.5625,-8.8125 1.43503,-4.03601 3.70798,-6.84578 6.4375,-10.0625 7.05514,-8.92355 8.70989,-19.83191 7.5625,-30.9375 -1.5076,-8.57214 -5.66208,-16.120795 -11.3125,-22.6875 -2.28946,-3.137405 -2.61861,-5.455026 -2.6875,-9.3125 1.28085,-3.130955 2.63039,-4.683186 5.1875,-6.875 3.78504,-1.514015 6.95654,-1.461441 10.8125,-0.125 z"
     fill="#9254f5"
     id="path11" />
</svg>
