<?xml version="1.0" encoding="UTF-8" standalone="no"?>
<svg
   version="1.1"
   width="394.81091"
   height="368.18155"
   id="svg11"
   xmlns="http://www.w3.org/2000/svg"
   xmlns:svg="http://www.w3.org/2000/svg">
  <defs
     id="defs11" />
  <path
     d="m 98.434821,210.53476 c 29.556099,13.32267 61.864629,11.90424 91.908209,1.09204 2.86524,-1.15338 5.57372,-2.55113 8.28881,-4.01977 5.58169,-2.54558 10.73642,-0.69639 16.24048,1.11523 13.13575,5.00343 25.21599,11.44708 35.5625,21.0625 0.91137,0.83145 1.82274,1.66289 2.76172,2.51954 20.47623,19.50525 32.8169,46.09821 33.52881,74.47656 0.0263,2.48037 0.041,4.96089 0.0454,7.4414 0.006,1.33708 0.0132,2.67416 0.0202,4.01123 0.0118,2.77315 0.0157,5.54617 0.0145,8.31934 -2.1e-4,3.54519 0.0273,7.0896 0.0615,10.6346 0.0276,3.40746 0.0264,6.81477 0.0288,10.22233 0.0144,1.26772 0.0287,2.53543 0.0435,3.84156 -0.006,1.17892 -0.0123,2.35785 -0.0186,3.57251 0.003,1.03334 0.006,2.06669 0.009,3.13134 -0.63134,3.61275 -1.93895,5.23629 -4.49448,7.82959 -2.99142,1.82354 -5.21287,2.25078 -8.69491,2.25448 -0.9454,0.006 -1.8908,0.0117 -2.86484,0.0177 -1.0355,-0.004 -2.07099,-0.008 -3.13786,-0.0114 -1.10245,0.004 -2.2049,0.008 -3.34076,0.0116 -3.70723,0.0104 -7.4143,0.006 -11.12154,0.002 -2.65255,0.004 -5.30508,0.009 -7.95763,0.0155 -6.46485,0.0128 -12.92966,0.0145 -19.39453,0.0122 -5.25397,-0.002 -10.50792,-4e-5 -15.76189,0.004 -0.74736,6e-4 -1.49472,10e-4 -2.26473,0.002 -1.51819,10e-4 -3.03639,0.002 -4.55459,0.004 -14.2421,0.0109 -28.48419,0.009 -42.7263,0.003 -13.03292,-0.005 -26.06576,0.006 -39.09866,0.0251 -13.37837,0.0194 -26.756709,0.0276 -40.135099,0.0239 -7.51248,-0.002 -15.0249,5.9e-4 -22.53737,0.0147 -6.39526,0.0119 -12.79042,0.0133 -19.18568,10e-4 -3.26343,-0.006 -6.52663,-0.005 -9.79005,0.005 -3.5365,0.0104 -7.07248,0.002 -10.60896,-0.0103 -1.54989,0.0111 -1.54989,0.0111 -3.1311,0.0223 -8.7337305,-0.0664 -8.7337305,-0.0664 -12.6935005,-3.39657 -4.08590998,-5.5155 -3.41584998,-11.77894 -3.36327998,-18.34375 -5e-4,-1.20128 -0.001,-2.40257 -0.002,-3.64025 0.002,-2.54181 0.0121,-5.08362 0.0286,-7.62537 0.0234,-3.84918 0.0206,-7.69765 0.0139,-11.54688 0.006,-2.47917 0.0127,-4.95833 0.0215,-7.4375 -9.1e-4,-1.13385 -0.002,-2.2677 -0.003,-3.43591 0.0946,-10.92217 1.25438998,-21.85939 4.42853998,-32.34534 0.31759,-1.05525 0.31759,-1.05525 0.6416,-2.13183 8.7556105,-27.59679 28.2411105,-50.17741 53.7768605,-63.43115 13.44703,-6.68566 25.28691,-11.09126 39.45654,-4.31202 z"
     fill="#9254f5"
     id="path1" />
  <path
     d="m 176.43482,4.7847592 c 1.10731,0.33903 2.21461,0.67805 3.35547,1.02735 20.48964,7.0128998 37.83267,22.0503798 49.64453,39.9726498 0.93393,1.39413 0.93393,1.39413 1.88672,2.81641 10.81768,17.24728 14.82758,37.05087 14.11328,57.183591 -0.87845,0.17221 -0.87845,0.17221 -1.77466,0.3479 -12.40257,2.45367 -24.7217,5.15907 -36.97534,8.2771 -1.7389,0.43325 -1.7389,0.43325 -3.51294,0.87525 -1.0837,0.28093 -2.16739,0.56187 -3.28393,0.85132 -0.95745,0.24572 -1.91491,0.49145 -2.90137,0.74463 -2.71185,0.96051 -4.48792,1.89833 -6.55176,3.9038 -0.33381,3.62564 -0.33381,3.62564 0,7 0.64711,0.23332 1.29422,0.46664 1.96094,0.70704 3.22099,1.37037 6.20797,2.98562 9.27222,4.67041 10.26776,5.62384 20.68896,9.87617 31.76684,13.62255 -0.4713,5.05507 -2.17188,8.42052 -5.125,12.4375 -0.43812,0.5991 -0.87624,1.19819 -1.32763,1.81543 -16.45023,21.78681 -39.24516,36.61563 -66.42237,40.99707 -27.77385,3.44864 -54.86701,-3.24663 -77.124999,-20.25 -20.96242,-16.68685 -35.25252,-40.89025 -38.72265,-67.59375 -2.29493,-28.185571 4.71862,-55.313511 22.72265,-77.406251 1.01321,-1.25877 1.01321,-1.25877 2.04688,-2.54296 C 95.083591,4.1081792 139.03111,-7.3885208 176.43482,4.7847592 Z"
     fill="#9254f5"
     id="path2" />
  <path
     d="m 347.43482,9.7847592 c 21.14967,16.1641698 34.94396,44.6429998 42.25,69.4999998 0.24654,0.82992 0.49307,1.65983 0.74707,2.5149 3.50437,12.48945 4.41514,25.067971 4.37793,37.985101 -5.4e-4,0.71689 -10e-4,1.43378 -0.002,2.1724 -0.13009,37.53043 -13.85128,72.47192 -39.00787,100.28537 -1.39309,1.57342 -2.72051,3.18834 -4.04517,4.81958 -2.98446,3.50197 -5.60815,5.49842 -10.30468,5.88672 -4.13564,-0.20212 -5.78682,-0.96863 -9.01563,-3.72657 -1.85326,-3.18529 -2.98364,-5.4474 -2.74219,-9.17578 1.72587,-5.25934 6.10612,-9.2229 9.74219,-13.26172 23.35325,-27.48464 33.9335,-61.11857 32,-97 -2.55925,-31.261551 -15.93786,-57.992301 -36.53125,-81.171871 -4.39532,-5.03515 -4.39532,-5.03515 -4.78125,-9.20313 0.34011,-3.9453 0.74126,-5.63904 3.3125,-8.625 5.41487,-3.2280898 8.19408,-3.1922198 14,-0.9999998 z"
     fill="#9254f5"
     id="path8" />
  <path
     d="m 309.43482,41.784759 c 17.93076,10.58447 29.03983,33.67538 34.22266,53.25 6.12309,29.538531 1.33923,57.008871 -14.22266,82.750001 -2.13646,3.22461 -4.41824,6.12512 -7,9 -0.75539,0.8843 -1.51078,1.7686 -2.28906,2.67969 -7.77243,8.93703 -7.77243,8.93703 -13.58594,9.69531 -3.94672,-0.4736 -6.03495,-1.9317 -9.125,-4.375 -1.60966,-3.21932 -1.45943,-6.50831 -1,-10 1.92538,-3.69673 4.4654,-6.51026 7.25,-9.5625 6.72947,-7.62288 11.53967,-16.16591 15.125,-25.625 0.23856,-0.62841 0.47712,-1.25683 0.7229,-1.90429 7.78659,-21.76979 4.90966,-45.02042 -4.4729,-65.732421 -4.15751,-8.12514 -9.96667,-14.95974 -15.80469,-21.92579 -2.75334,-3.40328 -3.21183,-5.79058 -3.17968,-10.21093 0.6026,-3.41913 2.72723,-4.97096 5.35937,-7.03907 2.86608,-1.43304 4.81301,-1.30644 8,-1 z"
     fill="#9254f5"
     id="path9" />
  <path
     d="m 279.43482,74.784759 c 4.18262,2.80607 6.84844,6.22641 9.5,10.4375 0.38801,0.61183 0.77602,1.22365 1.17578,1.85401 4.98229,8.10455 9.07532,17.067521 9.32422,26.708491 0.0503,1.10989 0.10055,2.21977 0.15235,3.36329 0.44586,17.4602 -3.98677,31.63879 -15.90625,44.57812 -2.8408,2.60365 -5.42571,4.84164 -9.34375,5.30859 -3.71679,-0.47291 -5.47529,-0.86674 -8.33985,-3.4375 -1.75597,-3.16074 -2.4886,-5.19171 -2.5625,-8.8125 1.43503,-4.03601 3.70798,-6.84577 6.4375,-10.0625 7.05514,-8.92355 8.70989,-19.8319 7.5625,-30.9375 -1.5076,-8.57214 -5.66208,-16.120791 -11.3125,-22.687501 -2.28946,-3.1374 -2.61861,-5.45502 -2.6875,-9.3125 1.28085,-3.13095 2.63039,-4.68318 5.1875,-6.875 3.78504,-1.51401 6.95654,-1.46144 10.8125,-0.125 z"
     fill="#9254f5"
     id="path11" />
</svg>
